# xmcd
#
# Track frame offsets:
#	150
#	22928
#	30243
#	38454
#	54489
#	76184
#	117012
#	132973
#	183816
#	240079
#	250434
#	294875
#
# Disc length: 4040 seconds
#
# Revision: 1
# Processed by: cddbd v1.5.2PL0 Copyright (c) Steve Scherf et al.
# Submitted via: audiograbber 1.83.01
#
DISCID=7f0fc60c
DTITLE=Grateful Dead - 68-03-30 Carousel Ballroom, San Francisco CA
DYEAR=1900
DGENRE=
TTITLE0=Morning Dew
TTITLE1=Tuning
TTITLE2=Cryptical Envelopment
TTITLE3=The Other One
TTITLE4=Cryptical Envelopment
TTITLE5=Dark Star
TTITLE6=China Cat Sunflower
TTITLE7=The Eleven
TTITLE8=Turn On Your Lovelight
TTITLE9=Born Cross Eyed
TTITLE10=Spanish Jam
TTITLE11=Death Don't Have No Mercy
EXTD=
EXTT0=
EXTT1=
EXTT2=
EXTT3=
EXTT4=
EXTT5=
EXTT6=
EXTT7=
EXTT8=
EXTT9=
EXTT10=
EXTT11=
PLAYORDER=
